<?xml version="1.0" standalone="no"?>
<!DOCTYPE svg PUBLIC "-//W3C//DTD SVG 20010904//EN"
 "http://www.w3.org/TR/2001/REC-SVG-20010904/DTD/svg10.dtd">
<svg version="1.0" xmlns="http://www.w3.org/2000/svg"
 width="343.000000pt" height="343.000000pt" viewBox="0 0 343.000000 343.000000"
 preserveAspectRatio="xMidYMid meet">
<metadata>
Created by potrace 1.11, written by Peter Selinger 2001-2013
</metadata>
<g transform="translate(0.000000,343.000000) scale(0.100000,-0.100000)"
fill="#000000" stroke="none">
<path d="M1479 2516 c-236 -96 -332 -345 -218 -568 26 -52 108 -132 162 -160
84 -42 125 -47 440 -48 268 0 302 1 318 16 24 22 24 56 1 78 -17 14 -51 16
-313 15 -162 -1 -305 1 -319 5 -87 25 -165 88 -199 162 -75 158 4 343 171 401
32 11 91 14 247 13 113 0 207 -2 209 -5 2 -2 5 -53 6 -113 2 -121 10 -142 57
-142 43 0 50 24 50 186 0 125 -2 149 -17 165 -17 19 -32 20 -279 19 -245 -2
-265 -3 -316 -24z"/>
<path d="M1417 2124 c-6 -6 6 -53 22 -82 10 -19 21 -20 218 -24 219 -4 244 -9
315 -60 22 -15 41 -18 99 -16 l72 3 -50 51 c-56 57 -152 109 -226 123 -51 9
-441 13 -450 5z"/>
<path d="M1236 1784 c-17 -16 -19 -28 -17 -112 4 -203 130 -367 320 -417 59
-15 236 -19 314 -6 125 21 270 128 321 236 22 46 46 130 46 163 0 19 -3 21
-19 12 -11 -5 -35 -10 -53 -10 -33 0 -35 -2 -47 -49 -27 -106 -110 -194 -217
-230 -90 -30 -279 -28 -361 5 -113 45 -191 165 -197 301 -2 60 -4 65 -38 93
-33 28 -38 29 -52 14z"/>
<path d="M1647 673 c-4 -3 -7 -22 -7 -40 0 -33 -1 -34 -30 -28 -23 5 -35 1
-55 -19 -33 -33 -34 -85 -1 -123 22 -26 27 -27 55 -16 18 6 33 7 37 2 15 -24
19 0 19 105 0 110 -4 134 -18 119z m-9 -127 c7 -59 -16 -94 -53 -80 -16 7 -31
49 -26 74 5 27 24 41 50 38 20 -2 27 -9 29 -32z"/>
<path d="M2203 663 c-5 -10 -8 -30 -7 -45 1 -23 -2 -26 -17 -18 -23 13 -64 -3
-78 -29 -19 -34 -13 -88 11 -111 24 -22 40 -25 68 -10 13 7 21 7 25 0 15 -24
20 5 19 109 -1 114 -6 137 -21 104z m-12 -90 c9 -48 4 -91 -12 -101 -50 -31
-86 44 -46 96 10 13 56 17 58 5z"/>
<path d="M1907 664 c-13 -13 -7 -24 14 -24 11 0 19 5 17 12 -5 14 -22 21 -31
12z"/>
<path d="M1228 648 c-43 -34 -22 -83 47 -113 24 -9 35 -21 35 -35 0 -29 -37
-41 -77 -24 -27 11 -33 11 -33 0 0 -20 54 -39 88 -31 33 7 56 46 47 76 -4 11
-29 31 -56 44 -27 14 -49 31 -49 39 0 30 39 40 83 21 24 -10 22 12 -2 25 -27
14 -64 13 -83 -2z"/>
<path d="M1722 553 l3 -108 40 -1 c81 -2 135 58 87 96 -11 10 -17 21 -13 26 5
5 12 19 15 31 11 35 -21 59 -82 62 l-53 2 3 -108z m82 77 c49 -18 29 -60 -29
-60 -29 0 -41 45 -16 60 20 12 15 12 45 0z m26 -95 c14 -8 12 -39 -2 -53 -15
-15 -75 -16 -80 0 -2 6 -2 24 0 39 4 26 7 28 38 24 19 -2 39 -7 44 -10z"/>
<path d="M1411 601 c-43 -12 -36 -30 8 -24 36 5 41 3 41 -14 0 -15 -9 -22 -32
-27 -41 -8 -58 -23 -58 -51 0 -36 25 -50 65 -37 20 6 35 6 35 1 0 -5 5 -9 10
-9 6 0 10 28 10 65 0 52 -4 69 -20 85 -21 21 -22 22 -59 11z m52 -112 c-3 -10
-8 -19 -12 -20 -3 0 -14 -2 -23 -4 -21 -4 -40 16 -30 32 4 7 19 16 32 21 28
11 40 0 33 -29z"/>
<path d="M2030 595 c-10 -12 -15 -13 -20 -4 -16 25 -25 -2 -25 -70 1 -39 4
-71 8 -71 4 0 10 0 15 0 4 0 7 21 6 47 -1 58 10 83 37 83 12 0 19 5 17 12 -7
19 -24 20 -38 3z"/>
<path d="M1907 548 c1 -29 2 -66 2 -82 1 -23 4 -27 13 -18 6 6 12 43 13 82 1
58 -1 70 -14 70 -13 0 -16 -10 -14 -52z"/>
</g>
</svg>
